<?xml version="1.0" encoding="UTF-8" standalone="no"?>
<!-- This is a Stata 19.5 generated SVG file (http://www.stata.com) -->

<svg version="1.1" width="8.000in" height="4.800in" viewBox="0 0 5760 3456" xmlns="http://www.w3.org/2000/svg" xmlns:xlink="http://www.w3.org/1999/xlink">
	<desc>Stata Graph - modcmp</desc>
	<rect x="0" y="0" width="5760" height="3456" style="fill:#FFFFFF;stroke:none"/>
	<rect x="0.00" y="0.00" width="5760.00" height="3456.00" style="fill:#FFFFFF"/>
	<rect x="3.46" y="3.46" width="5753.09" height="3449.09" style="fill:none;stroke:#FFFFFF;stroke-width:6.91"/>
	<rect x="557.64" y="431.82" width="5081.40" height="2147.22" style="fill:#FFFFFF"/>
	<rect x="561.10" y="435.28" width="5074.49" height="2140.31" style="fill:none;stroke:#FFFFFF;stroke-width:6.91"/>
	<line x1="557.64" y1="2579.04" x2="626.76" y2="2579.04" style="stroke:#F0F0F0;stroke-width:10.37"/>
	<line x1="661.32" y1="2579.04" x2="730.44" y2="2579.04" style="stroke:#F0F0F0;stroke-width:10.37"/>
	<line x1="765.00" y1="2579.04" x2="834.12" y2="2579.04" style="stroke:#F0F0F0;stroke-width:10.37"/>
	<line x1="868.68" y1="2579.04" x2="937.80" y2="2579.04" style="stroke:#F0F0F0;stroke-width:10.37"/>
	<line x1="972.36" y1="2579.04" x2="1041.48" y2="2579.04" style="stroke:#F0F0F0;stroke-width:10.37"/>
	<line x1="1076.04" y1="2579.04" x2="1145.16" y2="2579.04" style="stroke:#F0F0F0;stroke-width:10.37"/>
	<line x1="1179.72" y1="2579.04" x2="1248.84" y2="2579.04" style="stroke:#F0F0F0;stroke-width:10.37"/>
	<line x1="1283.40" y1="2579.04" x2="1352.52" y2="2579.04" style="stroke:#F0F0F0;stroke-width:10.37"/>
	<line x1="1387.08" y1="2579.04" x2="1456.20" y2="2579.04" style="stroke:#F0F0F0;stroke-width:10.37"/>
	<line x1="1490.76" y1="2579.04" x2="1559.88" y2="2579.04" style="stroke:#F0F0F0;stroke-width:10.37"/>
	<line x1="1594.44" y1="2579.04" x2="1663.56" y2="2579.04" style="stroke:#F0F0F0;stroke-width:10.37"/>
	<line x1="1698.12" y1="2579.04" x2="1767.24" y2="2579.04" style="stroke:#F0F0F0;stroke-width:10.37"/>
	<line x1="1801.80" y1="2579.04" x2="1870.92" y2="2579.04" style="stroke:#F0F0F0;stroke-width:10.37"/>
	<line x1="1905.48" y1="2579.04" x2="1974.60" y2="2579.04" style="stroke:#F0F0F0;stroke-width:10.37"/>
	<line x1="2009.16" y1="2579.04" x2="2078.28" y2="2579.04" style="stroke:#F0F0F0;stroke-width:10.37"/>
	<line x1="2112.84" y1="2579.04" x2="2181.96" y2="2579.04" style="stroke:#F0F0F0;stroke-width:10.37"/>
	<line x1="2216.52" y1="2579.04" x2="2285.64" y2="2579.04" style="stroke:#F0F0F0;stroke-width:10.37"/>
	<line x1="2320.20" y1="2579.04" x2="2389.32" y2="2579.04" style="stroke:#F0F0F0;stroke-width:10.37"/>
	<line x1="2423.88" y1="2579.04" x2="2493.00" y2="2579.04" style="stroke:#F0F0F0;stroke-width:10.37"/>
	<line x1="2527.56" y1="2579.04" x2="2596.68" y2="2579.04" style="stroke:#F0F0F0;stroke-width:10.37"/>
	<line x1="2631.24" y1="2579.04" x2="2700.36" y2="2579.04" style="stroke:#F0F0F0;stroke-width:10.37"/>
	<line x1="2734.92" y1="2579.04" x2="2804.04" y2="2579.04" style="stroke:#F0F0F0;stroke-width:10.37"/>
	<line x1="2838.60" y1="2579.04" x2="2907.72" y2="2579.04" style="stroke:#F0F0F0;stroke-width:10.37"/>
	<line x1="2942.28" y1="2579.04" x2="3011.40" y2="2579.04" style="stroke:#F0F0F0;stroke-width:10.37"/>
	<line x1="3045.96" y1="2579.04" x2="3115.08" y2="2579.04" style="stroke:#F0F0F0;stroke-width:10.37"/>
	<line x1="3149.64" y1="2579.04" x2="3218.76" y2="2579.04" style="stroke:#F0F0F0;stroke-width:10.37"/>
	<line x1="3253.32" y1="2579.04" x2="3322.44" y2="2579.04" style="stroke:#F0F0F0;stroke-width:10.37"/>
	<line x1="3357.00" y1="2579.04" x2="3426.12" y2="2579.04" style="stroke:#F0F0F0;stroke-width:10.37"/>
	<line x1="3460.68" y1="2579.04" x2="3529.80" y2="2579.04" style="stroke:#F0F0F0;stroke-width:10.37"/>
	<line x1="3564.36" y1="2579.04" x2="3633.48" y2="2579.04" style="stroke:#F0F0F0;stroke-width:10.37"/>
	<line x1="3668.04" y1="2579.04" x2="3737.16" y2="2579.04" style="stroke:#F0F0F0;stroke-width:10.37"/>
	<line x1="3771.72" y1="2579.04" x2="3840.84" y2="2579.04" style="stroke:#F0F0F0;stroke-width:10.37"/>
	<line x1="3875.40" y1="2579.04" x2="3944.52" y2="2579.04" style="stroke:#F0F0F0;stroke-width:10.37"/>
	<line x1="3979.08" y1="2579.04" x2="4048.20" y2="2579.04" style="stroke:#F0F0F0;stroke-width:10.37"/>
	<line x1="4082.76" y1="2579.04" x2="4151.88" y2="2579.04" style="stroke:#F0F0F0;stroke-width:10.37"/>
	<line x1="4186.44" y1="2579.04" x2="4255.56" y2="2579.04" style="stroke:#F0F0F0;stroke-width:10.37"/>
	<line x1="4290.12" y1="2579.04" x2="4359.24" y2="2579.04" style="stroke:#F0F0F0;stroke-width:10.37"/>
	<line x1="4393.80" y1="2579.04" x2="4462.92" y2="2579.04" style="stroke:#F0F0F0;stroke-width:10.37"/>
	<line x1="4497.48" y1="2579.04" x2="4566.60" y2="2579.04" style="stroke:#F0F0F0;stroke-width:10.37"/>
	<line x1="4601.16" y1="2579.04" x2="4670.28" y2="2579.04" style="stroke:#F0F0F0;stroke-width:10.37"/>
	<line x1="4704.84" y1="2579.04" x2="4773.96" y2="2579.04" style="stroke:#F0F0F0;stroke-width:10.37"/>
	<line x1="4808.52" y1="2579.04" x2="4877.64" y2="2579.04" style="stroke:#F0F0F0;stroke-width:10.37"/>
	<line x1="4912.20" y1="2579.04" x2="4981.32" y2="2579.04" style="stroke:#F0F0F0;stroke-width:10.37"/>
	<line x1="5015.88" y1="2579.04" x2="5085.00" y2="2579.04" style="stroke:#F0F0F0;stroke-width:10.37"/>
	<line x1="5119.56" y1="2579.04" x2="5188.68" y2="2579.04" style="stroke:#F0F0F0;stroke-width:10.37"/>
	<line x1="5223.24" y1="2579.04" x2="5292.36" y2="2579.04" style="stroke:#F0F0F0;stroke-width:10.37"/>
	<line x1="5326.92" y1="2579.04" x2="5396.04" y2="2579.04" style="stroke:#F0F0F0;stroke-width:10.37"/>
	<line x1="5430.60" y1="2579.04" x2="5499.72" y2="2579.04" style="stroke:#F0F0F0;stroke-width:10.37"/>
	<line x1="5534.28" y1="2579.04" x2="5603.40" y2="2579.04" style="stroke:#F0F0F0;stroke-width:10.37"/>
	<line x1="5637.96" y1="2579.04" x2="5639.04" y2="2579.04" style="stroke:#F0F0F0;stroke-width:10.37"/>
	<line x1="557.64" y1="2107.80" x2="626.76" y2="2107.80" style="stroke:#F0F0F0;stroke-width:10.37"/>
	<line x1="661.32" y1="2107.80" x2="730.44" y2="2107.80" style="stroke:#F0F0F0;stroke-width:10.37"/>
	<line x1="765.00" y1="2107.80" x2="834.12" y2="2107.80" style="stroke:#F0F0F0;stroke-width:10.37"/>
	<line x1="868.68" y1="2107.80" x2="937.80" y2="2107.80" style="stroke:#F0F0F0;stroke-width:10.37"/>
	<line x1="972.36" y1="2107.80" x2="1041.48" y2="2107.80" style="stroke:#F0F0F0;stroke-width:10.37"/>
	<line x1="1076.04" y1="2107.80" x2="1145.16" y2="2107.80" style="stroke:#F0F0F0;stroke-width:10.37"/>
	<line x1="1179.72" y1="2107.80" x2="1248.84" y2="2107.80" style="stroke:#F0F0F0;stroke-width:10.37"/>
	<line x1="1283.40" y1="2107.80" x2="1352.52" y2="2107.80" style="stroke:#F0F0F0;stroke-width:10.37"/>
	<line x1="1387.08" y1="2107.80" x2="1456.20" y2="2107.80" style="stroke:#F0F0F0;stroke-width:10.37"/>
	<line x1="1490.76" y1="2107.80" x2="1559.88" y2="2107.80" style="stroke:#F0F0F0;stroke-width:10.37"/>
	<line x1="1594.44" y1="2107.80" x2="1663.56" y2="2107.80" style="stroke:#F0F0F0;stroke-width:10.37"/>
	<line x1="1698.12" y1="2107.80" x2="1767.24" y2="2107.80" style="stroke:#F0F0F0;stroke-width:10.37"/>
	<line x1="1801.80" y1="2107.80" x2="1870.92" y2="2107.80" style="stroke:#F0F0F0;stroke-width:10.37"/>
	<line x1="1905.48" y1="2107.80" x2="1974.60" y2="2107.80" style="stroke:#F0F0F0;stroke-width:10.37"/>
	<line x1="2009.16" y1="2107.80" x2="2078.28" y2="2107.80" style="stroke:#F0F0F0;stroke-width:10.37"/>
	<line x1="2112.84" y1="2107.80" x2="2181.96" y2="2107.80" style="stroke:#F0F0F0;stroke-width:10.37"/>
	<line x1="2216.52" y1="2107.80" x2="2285.64" y2="2107.80" style="stroke:#F0F0F0;stroke-width:10.37"/>
	<line x1="2320.20" y1="2107.80" x2="2389.32" y2="2107.80" style="stroke:#F0F0F0;stroke-width:10.37"/>
	<line x1="2423.88" y1="2107.80" x2="2493.00" y2="2107.80" style="stroke:#F0F0F0;stroke-width:10.37"/>
	<line x1="2527.56" y1="2107.80" x2="2596.68" y2="2107.80" style="stroke:#F0F0F0;stroke-width:10.37"/>
	<line x1="2631.24" y1="2107.80" x2="2700.36" y2="2107.80" style="stroke:#F0F0F0;stroke-width:10.37"/>
	<line x1="2734.92" y1="2107.80" x2="2804.04" y2="2107.80" style="stroke:#F0F0F0;stroke-width:10.37"/>
	<line x1="2838.60" y1="2107.80" x2="2907.72" y2="2107.80" style="stroke:#F0F0F0;stroke-width:10.37"/>
	<line x1="2942.28" y1="2107.80" x2="3011.40" y2="2107.80" style="stroke:#F0F0F0;stroke-width:10.37"/>
	<line x1="3045.96" y1="2107.80" x2="3115.08" y2="2107.80" style="stroke:#F0F0F0;stroke-width:10.37"/>
	<line x1="3149.64" y1="2107.80" x2="3218.76" y2="2107.80" style="stroke:#F0F0F0;stroke-width:10.37"/>
	<line x1="3253.32" y1="2107.80" x2="3322.44" y2="2107.80" style="stroke:#F0F0F0;stroke-width:10.37"/>
	<line x1="3357.00" y1="2107.80" x2="3426.12" y2="2107.80" style="stroke:#F0F0F0;stroke-width:10.37"/>
	<line x1="3460.68" y1="2107.80" x2="3529.80" y2="2107.80" style="stroke:#F0F0F0;stroke-width:10.37"/>
	<line x1="3564.36" y1="2107.80" x2="3633.48" y2="2107.80" style="stroke:#F0F0F0;stroke-width:10.37"/>
	<line x1="3668.04" y1="2107.80" x2="3737.16" y2="2107.80" style="stroke:#F0F0F0;stroke-width:10.37"/>
	<line x1="3771.72" y1="2107.80" x2="3840.84" y2="2107.80" style="stroke:#F0F0F0;stroke-width:10.37"/>
	<line x1="3875.40" y1="2107.80" x2="3944.52" y2="2107.80" style="stroke:#F0F0F0;stroke-width:10.37"/>
	<line x1="3979.08" y1="2107.80" x2="4048.20" y2="2107.80" style="stroke:#F0F0F0;stroke-width:10.37"/>
	<line x1="4082.76" y1="2107.80" x2="4151.88" y2="2107.80" style="stroke:#F0F0F0;stroke-width:10.37"/>
	<line x1="4186.44" y1="2107.80" x2="4255.56" y2="2107.80" style="stroke:#F0F0F0;stroke-width:10.37"/>
	<line x1="4290.12" y1="2107.80" x2="4359.24" y2="2107.80" style="stroke:#F0F0F0;stroke-width:10.37"/>
	<line x1="4393.80" y1="2107.80" x2="4462.92" y2="2107.80" style="stroke:#F0F0F0;stroke-width:10.37"/>
	<line x1="4497.48" y1="2107.80" x2="4566.60" y2="2107.80" style="stroke:#F0F0F0;stroke-width:10.37"/>
	<line x1="4601.16" y1="2107.80" x2="4670.28" y2="2107.80" style="stroke:#F0F0F0;stroke-width:10.37"/>
	<line x1="4704.84" y1="2107.80" x2="4773.96" y2="2107.80" style="stroke:#F0F0F0;stroke-width:10.37"/>
	<line x1="4808.52" y1="2107.80" x2="4877.64" y2="2107.80" style="stroke:#F0F0F0;stroke-width:10.37"/>
	<line x1="4912.20" y1="2107.80" x2="4981.32" y2="2107.80" style="stroke:#F0F0F0;stroke-width:10.37"/>
	<line x1="5015.88" y1="2107.80" x2="5085.00" y2="2107.80" style="stroke:#F0F0F0;stroke-width:10.37"/>
	<line x1="5119.56" y1="2107.80" x2="5188.68" y2="2107.80" style="stroke:#F0F0F0;stroke-width:10.37"/>
	<line x1="5223.24" y1="2107.80" x2="5292.36" y2="2107.80" style="stroke:#F0F0F0;stroke-width:10.37"/>
	<line x1="5326.92" y1="2107.80" x2="5396.04" y2="2107.80" style="stroke:#F0F0F0;stroke-width:10.37"/>
	<line x1="5430.60" y1="2107.80" x2="5499.72" y2="2107.80" style="stroke:#F0F0F0;stroke-width:10.37"/>
	<line x1="5534.28" y1="2107.80" x2="5603.40" y2="2107.80" style="stroke:#F0F0F0;stroke-width:10.37"/>
	<line x1="5637.96" y1="2107.80" x2="5639.04" y2="2107.80" style="stroke:#F0F0F0;stroke-width:10.37"/>
	<line x1="557.64" y1="1636.56" x2="626.76" y2="1636.56" style="stroke:#F0F0F0;stroke-width:10.37"/>
	<line x1="661.32" y1="1636.56" x2="730.44" y2="1636.56" style="stroke:#F0F0F0;stroke-width:10.37"/>
	<line x1="765.00" y1="1636.56" x2="834.12" y2="1636.56" style="stroke:#F0F0F0;stroke-width:10.37"/>
	<line x1="868.68" y1="1636.56" x2="937.80" y2="1636.56" style="stroke:#F0F0F0;stroke-width:10.37"/>
	<line x1="972.36" y1="1636.56" x2="1041.48" y2="1636.56" style="stroke:#F0F0F0;stroke-width:10.37"/>
	<line x1="1076.04" y1="1636.56" x2="1145.16" y2="1636.56" style="stroke:#F0F0F0;stroke-width:10.37"/>
	<line x1="1179.72" y1="1636.56" x2="1248.84" y2="1636.56" style="stroke:#F0F0F0;stroke-width:10.37"/>
	<line x1="1283.40" y1="1636.56" x2="1352.52" y2="1636.56" style="stroke:#F0F0F0;stroke-width:10.37"/>
	<line x1="1387.08" y1="1636.56" x2="1456.20" y2="1636.56" style="stroke:#F0F0F0;stroke-width:10.37"/>
	<line x1="1490.76" y1="1636.56" x2="1559.88" y2="1636.56" style="stroke:#F0F0F0;stroke-width:10.37"/>
	<line x1="1594.44" y1="1636.56" x2="1663.56" y2="1636.56" style="stroke:#F0F0F0;stroke-width:10.37"/>
	<line x1="1698.12" y1="1636.56" x2="1767.24" y2="1636.56" style="stroke:#F0F0F0;stroke-width:10.37"/>
	<line x1="1801.80" y1="1636.56" x2="1870.92" y2="1636.56" style="stroke:#F0F0F0;stroke-width:10.37"/>
	<line x1="1905.48" y1="1636.56" x2="1974.60" y2="1636.56" style="stroke:#F0F0F0;stroke-width:10.37"/>
	<line x1="2009.16" y1="1636.56" x2="2078.28" y2="1636.56" style="stroke:#F0F0F0;stroke-width:10.37"/>
	<line x1="2112.84" y1="1636.56" x2="2181.96" y2="1636.56" style="stroke:#F0F0F0;stroke-width:10.37"/>
	<line x1="2216.52" y1="1636.56" x2="2285.64" y2="1636.56" style="stroke:#F0F0F0;stroke-width:10.37"/>
	<line x1="2320.20" y1="1636.56" x2="2389.32" y2="1636.56" style="stroke:#F0F0F0;stroke-width:10.37"/>
	<line x1="2423.88" y1="1636.56" x2="2493.00" y2="1636.56" style="stroke:#F0F0F0;stroke-width:10.37"/>
	<line x1="2527.56" y1="1636.56" x2="2596.68" y2="1636.56" style="stroke:#F0F0F0;stroke-width:10.37"/>
	<line x1="2631.24" y1="1636.56" x2="2700.36" y2="1636.56" style="stroke:#F0F0F0;stroke-width:10.37"/>
	<line x1="2734.92" y1="1636.56" x2="2804.04" y2="1636.56" style="stroke:#F0F0F0;stroke-width:10.37"/>
	<line x1="2838.60" y1="1636.56" x2="2907.72" y2="1636.56" style="stroke:#F0F0F0;stroke-width:10.37"/>
	<line x1="2942.28" y1="1636.56" x2="3011.40" y2="1636.56" style="stroke:#F0F0F0;stroke-width:10.37"/>
	<line x1="3045.96" y1="1636.56" x2="3115.08" y2="1636.56" style="stroke:#F0F0F0;stroke-width:10.37"/>
	<line x1="3149.64" y1="1636.56" x2="3218.76" y2="1636.56" style="stroke:#F0F0F0;stroke-width:10.37"/>
	<line x1="3253.32" y1="1636.56" x2="3322.44" y2="1636.56" style="stroke:#F0F0F0;stroke-width:10.37"/>
	<line x1="3357.00" y1="1636.56" x2="3426.12" y2="1636.56" style="stroke:#F0F0F0;stroke-width:10.37"/>
	<line x1="3460.68" y1="1636.56" x2="3529.80" y2="1636.56" style="stroke:#F0F0F0;stroke-width:10.37"/>
	<line x1="3564.36" y1="1636.56" x2="3633.48" y2="1636.56" style="stroke:#F0F0F0;stroke-width:10.37"/>
	<line x1="3668.04" y1="1636.56" x2="3737.16" y2="1636.56" style="stroke:#F0F0F0;stroke-width:10.37"/>
	<line x1="3771.72" y1="1636.56" x2="3840.84" y2="1636.56" style="stroke:#F0F0F0;stroke-width:10.37"/>
	<line x1="3875.40" y1="1636.56" x2="3944.52" y2="1636.56" style="stroke:#F0F0F0;stroke-width:10.37"/>
	<line x1="3979.08" y1="1636.56" x2="4048.20" y2="1636.56" style="stroke:#F0F0F0;stroke-width:10.37"/>
	<line x1="4082.76" y1="1636.56" x2="4151.88" y2="1636.56" style="stroke:#F0F0F0;stroke-width:10.37"/>
	<line x1="4186.44" y1="1636.56" x2="4255.56" y2="1636.56" style="stroke:#F0F0F0;stroke-width:10.37"/>
	<line x1="4290.12" y1="1636.56" x2="4359.24" y2="1636.56" style="stroke:#F0F0F0;stroke-width:10.37"/>
	<line x1="4393.80" y1="1636.56" x2="4462.92" y2="1636.56" style="stroke:#F0F0F0;stroke-width:10.37"/>
	<line x1="4497.48" y1="1636.56" x2="4566.60" y2="1636.56" style="stroke:#F0F0F0;stroke-width:10.37"/>
	<line x1="4601.16" y1="1636.56" x2="4670.28" y2="1636.56" style="stroke:#F0F0F0;stroke-width:10.37"/>
	<line x1="4704.84" y1="1636.56" x2="4773.96" y2="1636.56" style="stroke:#F0F0F0;stroke-width:10.37"/>
	<line x1="4808.52" y1="1636.56" x2="4877.64" y2="1636.56" style="stroke:#F0F0F0;stroke-width:10.37"/>
	<line x1="4912.20" y1="1636.56" x2="4981.32" y2="1636.56" style="stroke:#F0F0F0;stroke-width:10.37"/>
	<line x1="5015.88" y1="1636.56" x2="5085.00" y2="1636.56" style="stroke:#F0F0F0;stroke-width:10.37"/>
	<line x1="5119.56" y1="1636.56" x2="5188.68" y2="1636.56" style="stroke:#F0F0F0;stroke-width:10.37"/>
	<line x1="5223.24" y1="1636.56" x2="5292.36" y2="1636.56" style="stroke:#F0F0F0;stroke-width:10.37"/>
	<line x1="5326.92" y1="1636.56" x2="5396.04" y2="1636.56" style="stroke:#F0F0F0;stroke-width:10.37"/>
	<line x1="5430.60" y1="1636.56" x2="5499.72" y2="1636.56" style="stroke:#F0F0F0;stroke-width:10.37"/>
	<line x1="5534.28" y1="1636.56" x2="5603.40" y2="1636.56" style="stroke:#F0F0F0;stroke-width:10.37"/>
	<line x1="5637.96" y1="1636.56" x2="5639.04" y2="1636.56" style="stroke:#F0F0F0;stroke-width:10.37"/>
	<line x1="557.64" y1="1165.32" x2="626.76" y2="1165.32" style="stroke:#F0F0F0;stroke-width:10.37"/>
	<line x1="661.32" y1="1165.32" x2="730.44" y2="1165.32" style="stroke:#F0F0F0;stroke-width:10.37"/>
	<line x1="765.00" y1="1165.32" x2="834.12" y2="1165.32" style="stroke:#F0F0F0;stroke-width:10.37"/>
	<line x1="868.68" y1="1165.32" x2="937.80" y2="1165.32" style="stroke:#F0F0F0;stroke-width:10.37"/>
	<line x1="972.36" y1="1165.32" x2="1041.48" y2="1165.32" style="stroke:#F0F0F0;stroke-width:10.37"/>
	<line x1="1076.04" y1="1165.32" x2="1145.16" y2="1165.32" style="stroke:#F0F0F0;stroke-width:10.37"/>
	<line x1="1179.72" y1="1165.32" x2="1248.84" y2="1165.32" style="stroke:#F0F0F0;stroke-width:10.37"/>
	<line x1="1283.40" y1="1165.32" x2="1352.52" y2="1165.32" style="stroke:#F0F0F0;stroke-width:10.37"/>
	<line x1="1387.08" y1="1165.32" x2="1456.20" y2="1165.32" style="stroke:#F0F0F0;stroke-width:10.37"/>
	<line x1="1490.76" y1="1165.32" x2="1559.88" y2="1165.32" style="stroke:#F0F0F0;stroke-width:10.37"/>
	<line x1="1594.44" y1="1165.32" x2="1663.56" y2="1165.32" style="stroke:#F0F0F0;stroke-width:10.37"/>
	<line x1="1698.12" y1="1165.32" x2="1767.24" y2="1165.32" style="stroke:#F0F0F0;stroke-width:10.37"/>
	<line x1="1801.80" y1="1165.32" x2="1870.92" y2="1165.32" style="stroke:#F0F0F0;stroke-width:10.37"/>
	<line x1="1905.48" y1="1165.32" x2="1974.60" y2="1165.32" style="stroke:#F0F0F0;stroke-width:10.37"/>
	<line x1="2009.16" y1="1165.32" x2="2078.28" y2="1165.32" style="stroke:#F0F0F0;stroke-width:10.37"/>
	<line x1="2112.84" y1="1165.32" x2="2181.96" y2="1165.32" style="stroke:#F0F0F0;stroke-width:10.37"/>
	<line x1="2216.52" y1="1165.32" x2="2285.64" y2="1165.32" style="stroke:#F0F0F0;stroke-width:10.37"/>
	<line x1="2320.20" y1="1165.32" x2="2389.32" y2="1165.32" style="stroke:#F0F0F0;stroke-width:10.37"/>
	<line x1="2423.88" y1="1165.32" x2="2493.00" y2="1165.32" style="stroke:#F0F0F0;stroke-width:10.37"/>
	<line x1="2527.56" y1="1165.32" x2="2596.68" y2="1165.32" style="stroke:#F0F0F0;stroke-width:10.37"/>
	<line x1="2631.24" y1="1165.32" x2="2700.36" y2="1165.32" style="stroke:#F0F0F0;stroke-width:10.37"/>
	<line x1="2734.92" y1="1165.32" x2="2804.04" y2="1165.32" style="stroke:#F0F0F0;stroke-width:10.37"/>
	<line x1="2838.60" y1="1165.32" x2="2907.72" y2="1165.32" style="stroke:#F0F0F0;stroke-width:10.37"/>
	<line x1="2942.28" y1="1165.32" x2="3011.40" y2="1165.32" style="stroke:#F0F0F0;stroke-width:10.37"/>
	<line x1="3045.96" y1="1165.32" x2="3115.08" y2="1165.32" style="stroke:#F0F0F0;stroke-width:10.37"/>
	<line x1="3149.64" y1="1165.32" x2="3218.76" y2="1165.32" style="stroke:#F0F0F0;stroke-width:10.37"/>
	<line x1="3253.32" y1="1165.32" x2="3322.44" y2="1165.32" style="stroke:#F0F0F0;stroke-width:10.37"/>
	<line x1="3357.00" y1="1165.32" x2="3426.12" y2="1165.32" style="stroke:#F0F0F0;stroke-width:10.37"/>
	<line x1="3460.68" y1="1165.32" x2="3529.80" y2="1165.32" style="stroke:#F0F0F0;stroke-width:10.37"/>
	<line x1="3564.36" y1="1165.32" x2="3633.48" y2="1165.32" style="stroke:#F0F0F0;stroke-width:10.37"/>
	<line x1="3668.04" y1="1165.32" x2="3737.16" y2="1165.32" style="stroke:#F0F0F0;stroke-width:10.37"/>
	<line x1="3771.72" y1="1165.32" x2="3840.84" y2="1165.32" style="stroke:#F0F0F0;stroke-width:10.37"/>
	<line x1="3875.40" y1="1165.32" x2="3944.52" y2="1165.32" style="stroke:#F0F0F0;stroke-width:10.37"/>
	<line x1="3979.08" y1="1165.32" x2="4048.20" y2="1165.32" style="stroke:#F0F0F0;stroke-width:10.37"/>
	<line x1="4082.76" y1="1165.32" x2="4151.88" y2="1165.32" style="stroke:#F0F0F0;stroke-width:10.37"/>
	<line x1="4186.44" y1="1165.32" x2="4255.56" y2="1165.32" style="stroke:#F0F0F0;stroke-width:10.37"/>
	<line x1="4290.12" y1="1165.32" x2="4359.24" y2="1165.32" style="stroke:#F0F0F0;stroke-width:10.37"/>
	<line x1="4393.80" y1="1165.32" x2="4462.92" y2="1165.32" style="stroke:#F0F0F0;stroke-width:10.37"/>
	<line x1="4497.48" y1="1165.32" x2="4566.60" y2="1165.32" style="stroke:#F0F0F0;stroke-width:10.37"/>
	<line x1="4601.16" y1="1165.32" x2="4670.28" y2="1165.32" style="stroke:#F0F0F0;stroke-width:10.37"/>
	<line x1="4704.84" y1="1165.32" x2="4773.96" y2="1165.32" style="stroke:#F0F0F0;stroke-width:10.37"/>
	<line x1="4808.52" y1="1165.32" x2="4877.64" y2="1165.32" style="stroke:#F0F0F0;stroke-width:10.37"/>
	<line x1="4912.20" y1="1165.32" x2="4981.32" y2="1165.32" style="stroke:#F0F0F0;stroke-width:10.37"/>
	<line x1="5015.88" y1="1165.32" x2="5085.00" y2="1165.32" style="stroke:#F0F0F0;stroke-width:10.37"/>
	<line x1="5119.56" y1="1165.32" x2="5188.68" y2="1165.32" style="stroke:#F0F0F0;stroke-width:10.37"/>
	<line x1="5223.24" y1="1165.32" x2="5292.36" y2="1165.32" style="stroke:#F0F0F0;stroke-width:10.37"/>
	<line x1="5326.92" y1="1165.32" x2="5396.04" y2="1165.32" style="stroke:#F0F0F0;stroke-width:10.37"/>
	<line x1="5430.60" y1="1165.32" x2="5499.72" y2="1165.32" style="stroke:#F0F0F0;stroke-width:10.37"/>
	<line x1="5534.28" y1="1165.32" x2="5603.40" y2="1165.32" style="stroke:#F0F0F0;stroke-width:10.37"/>
	<line x1="5637.96" y1="1165.32" x2="5639.04" y2="1165.32" style="stroke:#F0F0F0;stroke-width:10.37"/>
	<line x1="557.64" y1="694.26" x2="626.76" y2="694.26" style="stroke:#F0F0F0;stroke-width:10.37"/>
	<line x1="661.32" y1="694.26" x2="730.44" y2="694.26" style="stroke:#F0F0F0;stroke-width:10.37"/>
	<line x1="765.00" y1="694.26" x2="834.12" y2="694.26" style="stroke:#F0F0F0;stroke-width:10.37"/>
	<line x1="868.68" y1="694.26" x2="937.80" y2="694.26" style="stroke:#F0F0F0;stroke-width:10.37"/>
	<line x1="972.36" y1="694.26" x2="1041.48" y2="694.26" style="stroke:#F0F0F0;stroke-width:10.37"/>
	<line x1="1076.04" y1="694.26" x2="1145.16" y2="694.26" style="stroke:#F0F0F0;stroke-width:10.37"/>
	<line x1="1179.72" y1="694.26" x2="1248.84" y2="694.26" style="stroke:#F0F0F0;stroke-width:10.37"/>
	<line x1="1283.40" y1="694.26" x2="1352.52" y2="694.26" style="stroke:#F0F0F0;stroke-width:10.37"/>
	<line x1="1387.08" y1="694.26" x2="1456.20" y2="694.26" style="stroke:#F0F0F0;stroke-width:10.37"/>
	<line x1="1490.76" y1="694.26" x2="1559.88" y2="694.26" style="stroke:#F0F0F0;stroke-width:10.37"/>
	<line x1="1594.44" y1="694.26" x2="1663.56" y2="694.26" style="stroke:#F0F0F0;stroke-width:10.37"/>
	<line x1="1698.12" y1="694.26" x2="1767.24" y2="694.26" style="stroke:#F0F0F0;stroke-width:10.37"/>
	<line x1="1801.80" y1="694.26" x2="1870.92" y2="694.26" style="stroke:#F0F0F0;stroke-width:10.37"/>
	<line x1="1905.48" y1="694.26" x2="1974.60" y2="694.26" style="stroke:#F0F0F0;stroke-width:10.37"/>
	<line x1="2009.16" y1="694.26" x2="2078.28" y2="694.26" style="stroke:#F0F0F0;stroke-width:10.37"/>
	<line x1="2112.84" y1="694.26" x2="2181.96" y2="694.26" style="stroke:#F0F0F0;stroke-width:10.37"/>
	<line x1="2216.52" y1="694.26" x2="2285.64" y2="694.26" style="stroke:#F0F0F0;stroke-width:10.37"/>
	<line x1="2320.20" y1="694.26" x2="2389.32" y2="694.26" style="stroke:#F0F0F0;stroke-width:10.37"/>
	<line x1="2423.88" y1="694.26" x2="2493.00" y2="694.26" style="stroke:#F0F0F0;stroke-width:10.37"/>
	<line x1="2527.56" y1="694.26" x2="2596.68" y2="694.26" style="stroke:#F0F0F0;stroke-width:10.37"/>
	<line x1="2631.24" y1="694.26" x2="2700.36" y2="694.26" style="stroke:#F0F0F0;stroke-width:10.37"/>
	<line x1="2734.92" y1="694.26" x2="2804.04" y2="694.26" style="stroke:#F0F0F0;stroke-width:10.37"/>
	<line x1="2838.60" y1="694.26" x2="2907.72" y2="694.26" style="stroke:#F0F0F0;stroke-width:10.37"/>
	<line x1="2942.28" y1="694.26" x2="3011.40" y2="694.26" style="stroke:#F0F0F0;stroke-width:10.37"/>
	<line x1="3045.96" y1="694.26" x2="3115.08" y2="694.26" style="stroke:#F0F0F0;stroke-width:10.37"/>
	<line x1="3149.64" y1="694.26" x2="3218.76" y2="694.26" style="stroke:#F0F0F0;stroke-width:10.37"/>
	<line x1="3253.32" y1="694.26" x2="3322.44" y2="694.26" style="stroke:#F0F0F0;stroke-width:10.37"/>
	<line x1="3357.00" y1="694.26" x2="3426.12" y2="694.26" style="stroke:#F0F0F0;stroke-width:10.37"/>
	<line x1="3460.68" y1="694.26" x2="3529.80" y2="694.26" style="stroke:#F0F0F0;stroke-width:10.37"/>
	<line x1="3564.36" y1="694.26" x2="3633.48" y2="694.26" style="stroke:#F0F0F0;stroke-width:10.37"/>
	<line x1="3668.04" y1="694.26" x2="3737.16" y2="694.26" style="stroke:#F0F0F0;stroke-width:10.37"/>
	<line x1="3771.72" y1="694.26" x2="3840.84" y2="694.26" style="stroke:#F0F0F0;stroke-width:10.37"/>
	<line x1="3875.40" y1="694.26" x2="3944.52" y2="694.26" style="stroke:#F0F0F0;stroke-width:10.37"/>
	<line x1="3979.08" y1="694.26" x2="4048.20" y2="694.26" style="stroke:#F0F0F0;stroke-width:10.37"/>
	<line x1="4082.76" y1="694.26" x2="4151.88" y2="694.26" style="stroke:#F0F0F0;stroke-width:10.37"/>
	<line x1="4186.44" y1="694.26" x2="4255.56" y2="694.26" style="stroke:#F0F0F0;stroke-width:10.37"/>
	<line x1="4290.12" y1="694.26" x2="4359.24" y2="694.26" style="stroke:#F0F0F0;stroke-width:10.37"/>
	<line x1="4393.80" y1="694.26" x2="4462.92" y2="694.26" style="stroke:#F0F0F0;stroke-width:10.37"/>
	<line x1="4497.48" y1="694.26" x2="4566.60" y2="694.26" style="stroke:#F0F0F0;stroke-width:10.37"/>
	<line x1="4601.16" y1="694.26" x2="4670.28" y2="694.26" style="stroke:#F0F0F0;stroke-width:10.37"/>
	<line x1="4704.84" y1="694.26" x2="4773.96" y2="694.26" style="stroke:#F0F0F0;stroke-width:10.37"/>
	<line x1="4808.52" y1="694.26" x2="4877.64" y2="694.26" style="stroke:#F0F0F0;stroke-width:10.37"/>
	<line x1="4912.20" y1="694.26" x2="4981.32" y2="694.26" style="stroke:#F0F0F0;stroke-width:10.37"/>
	<line x1="5015.88" y1="694.26" x2="5085.00" y2="694.26" style="stroke:#F0F0F0;stroke-width:10.37"/>
	<line x1="5119.56" y1="694.26" x2="5188.68" y2="694.26" style="stroke:#F0F0F0;stroke-width:10.37"/>
	<line x1="5223.24" y1="694.26" x2="5292.36" y2="694.26" style="stroke:#F0F0F0;stroke-width:10.37"/>
	<line x1="5326.92" y1="694.26" x2="5396.04" y2="694.26" style="stroke:#F0F0F0;stroke-width:10.37"/>
	<line x1="5430.60" y1="694.26" x2="5499.72" y2="694.26" style="stroke:#F0F0F0;stroke-width:10.37"/>
	<line x1="5534.28" y1="694.26" x2="5603.40" y2="694.26" style="stroke:#F0F0F0;stroke-width:10.37"/>
	<line x1="5637.96" y1="694.26" x2="5639.04" y2="694.26" style="stroke:#F0F0F0;stroke-width:10.37"/>
	<rect x="1219.32" y="2013.48" width="450.54" height="565.56" style="fill:#D41159"/>
	<rect x="1222.78" y="2016.94" width="443.63" height="558.65" style="fill:none;stroke:#D41159;stroke-width:6.91"/>
	<rect x="1669.86" y="2201.94" width="450.54" height="377.10" style="fill:#00BF7F"/>
	<rect x="1673.32" y="2205.40" width="443.63" height="370.19" style="fill:none;stroke:#00BF7F;stroke-width:6.91"/>
	<rect x="2422.44" y="2531.88" width="450.54" height="47.16" style="fill:#1A85FF"/>
	<rect x="2425.90" y="2535.34" width="443.63" height="40.25" style="fill:none;stroke:#1A85FF;stroke-width:6.91"/>
	<rect x="2872.98" y="552.78" width="450.54" height="2026.26" style="fill:#D41159"/>
	<rect x="2876.44" y="556.24" width="443.63" height="2019.35" style="fill:none;stroke:#D41159;stroke-width:6.91"/>
	<rect x="3323.52" y="2343.42" width="450.72" height="235.62" style="fill:#00BF7F"/>
	<rect x="3326.98" y="2346.88" width="443.81" height="228.71" style="fill:none;stroke:#00BF7F;stroke-width:6.91"/>
	<rect x="4526.82" y="2531.88" width="450.54" height="47.16" style="fill:#D41159"/>
	<rect x="4530.28" y="2535.34" width="443.63" height="40.25" style="fill:none;stroke:#D41159;stroke-width:6.91"/>
	<line x1="557.64" y1="2579.04" x2="557.64" y2="431.82" style="stroke:#000000;stroke-width:6.91"/>
	<line x1="557.64" y1="2579.04" x2="509.58" y2="2579.04" style="stroke:#000000;stroke-width:6.91"/>
	<text x="485.64" y="2621.11" style="font-family:'Helvetica';font-size:120.06px;fill:#000000" text-anchor="end">0</text>
	<line x1="557.64" y1="2107.80" x2="509.58" y2="2107.80" style="stroke:#000000;stroke-width:6.91"/>
	<text x="485.64" y="2149.87" style="font-family:'Helvetica';font-size:120.06px;fill:#000000" text-anchor="end">10</text>
	<line x1="557.64" y1="1636.56" x2="509.58" y2="1636.56" style="stroke:#000000;stroke-width:6.91"/>
	<text x="485.64" y="1678.63" style="font-family:'Helvetica';font-size:120.06px;fill:#000000" text-anchor="end">20</text>
	<line x1="557.64" y1="1165.32" x2="509.58" y2="1165.32" style="stroke:#000000;stroke-width:6.91"/>
	<text x="485.64" y="1207.39" style="font-family:'Helvetica';font-size:120.06px;fill:#000000" text-anchor="end">30</text>
	<line x1="557.64" y1="694.26" x2="509.58" y2="694.26" style="stroke:#000000;stroke-width:6.91"/>
	<text x="485.64" y="736.33" style="font-family:'Helvetica';font-size:120.06px;fill:#000000" text-anchor="end">40</text>
	<text x="228.85" y="1505.34" style="font-family:'Helvetica';font-size:120.06px;fill:#000000" transform="rotate(-90 228.85,1505.34)" text-anchor="middle">Reports</text>
	<line x1="557.64" y1="2579.04" x2="5639.04" y2="2579.04" style="stroke:#000000;stroke-width:6.91"/>
	<text x="1444.50" y="2710.87" style="font-family:'Helvetica';font-size:120.06px;fill:#000000" text-anchor="middle">EA</text>
	<text x="3098.34" y="2710.87" style="font-family:'Helvetica';font-size:120.06px;fill:#000000" text-anchor="middle">TEAS</text>
	<text x="4752.00" y="2710.87" style="font-family:'Helvetica';font-size:120.06px;fill:#000000" text-anchor="middle">UNCLEAR</text>
	<text x="578.34" y="3148.65" style="font-family:'Helvetica';font-size:72.00px;fill:#000000">Counts are reports (70 reports from 69 operational trial families), not independent patients.</text>
	<text x="578.34" y="3220.65" style="font-family:'Helvetica';font-size:72.00px;fill:#000000">Source: 14_CHARACTERISTICS/report_characteristics.csv (harmonised; surgical category source-traced).</text>
	<text x="578.34" y="3292.65" style="font-family:'Helvetica';font-size:72.00px;fill:#000000">StataNow/SE 19.5, 13_STATA/do/05_descriptives.do.</text>
	<text x="3098.34" y="396.86" style="font-family:'Helvetica';font-size:95.94px;fill:#000000" text-anchor="middle">Study-level labels; result-level comparator classes govern model membership</text>
	<text x="3098.34" y="234.11" style="font-family:'Helvetica';font-size:131.94px;fill:#000000" text-anchor="middle">Modality and comparator class</text>
	<rect x="1717.38" y="2812.50" width="2761.92" height="223.56" style="fill:#FFFFFF"/>
	<rect x="1720.84" y="2815.96" width="2755.01" height="216.65" style="fill:none;stroke:#FFFFFF;stroke-width:6.91"/>
	<rect x="1769.22" y="2864.34" width="276.48" height="119.88" style="fill:#1A85FF"/>
	<rect x="1772.68" y="2867.80" width="269.57" height="112.97" style="fill:none;stroke:#1A85FF;stroke-width:6.91"/>
	<rect x="2869.20" y="2864.34" width="276.48" height="119.88" style="fill:#D41159"/>
	<rect x="2872.66" y="2867.80" width="269.57" height="112.97" style="fill:none;stroke:#D41159;stroke-width:6.91"/>
	<rect x="3623.40" y="2864.34" width="276.48" height="119.88" style="fill:#00BF7F"/>
	<rect x="3626.86" y="2867.80" width="269.57" height="112.97" style="fill:none;stroke:#00BF7F;stroke-width:6.91"/>
	<text x="2117.70" y="2957.90" style="font-family:'Helvetica';font-size:95.94px;fill:#000000">active control</text>
	<text x="3217.68" y="2957.90" style="font-family:'Helvetica';font-size:95.94px;fill:#000000">sham</text>
	<text x="3971.88" y="2957.90" style="font-family:'Helvetica';font-size:95.94px;fill:#000000">usual care</text>
</svg>
